# xmcd
#
# Track frame offsets:
#	150
#	28355
#	40353
#	59784
#	74659
#	94978
#	110052
#	125928
#	146156
#	162862
#	184607
#	202672
#
# Disc length: 2867 seconds
#
# Revision: 1
# Processed by: cddbd v1.5.1PL0 Copyright (c) Steve Scherf et al.
# Submitted via: EasyCDDAExtractor 7.0.5.1
#
DISCID=c30b310c
DTITLE=Spooky Blues - Wating for hugo
DYEAR=2003
DGENRE=blues
TTITLE0=soon as i get paid
TTITLE1=i ain't got you
TTITLE2=rio de janeiro blues
TTITLE3=red house blues
TTITLE4=senor blues
TTITLE5=route 66
TTITLE6=i got you
TTITLE7=you say that you wan't to
TTITLE8=pink champange
TTITLE9=greenback dollar bill
TTITLE10=dot com blues
TTITLE11=let the good times roll
EXTD=
EXTT0=
EXTT1=
EXTT2=
EXTT3=
EXTT4=
EXTT5=
EXTT6=
EXTT7=
EXTT8=
EXTT9=
EXTT10=
EXTT11=
PLAYORDER=
